<?xml version="1.0" encoding="UTF-8"?>
<svg id="Layer_1" xmlns="http://www.w3.org/2000/svg" version="1.1" viewBox="0 0 258.2 262.1">
  <!-- Generator: Adobe Illustrator 29.0.1, SVG Export Plug-In . SVG Version: 2.1.0 Build 192)  -->
  <defs>
    <style>
      .st0 {
        fill: #fff;
      }
    </style>
  </defs>
  <path class="st0" d="M235.4,118.7h-26c12.6,0,22.7-10.2,22.7-22.7v-2.3c0-12.6-10.2-22.7-22.7-22.7H45.5V22.7C45.5,10.2,35.3,0,22.7,0h0C10.2,0,0,10.2,0,22.7v239.3h117c12.6,0,22.7-10.2,22.7-22.7v-2.3c0-12.6-10.2-22.7-22.7-22.7h22.7c12.6,0,22.7-10.2,22.7-22.7v-2.3c0-12.6-10.2-22.7-22.7-22.7h95.8c12.6,0,22.7-10.2,22.7-22.7v-2.3c0-12.6-10.2-22.7-22.7-22.7Z"/>
</svg>